<svg width="85" height="72" viewBox="0 0 85 72" fill="none" xmlns="http://www.w3.org/2000/svg">
<circle cx="34" cy="34" r="34" fill="#FFA67D" fill-opacity="0.38"/>
<g clip-path="url(#clip0_396_341)">
<path d="M49.447 7C49.8763 7.3816 50.3215 7.73141 50.719 8.12891C55.1711 12.5651 59.6072 17.0171 64.0593 21.4533C64.9338 22.3278 65.0451 23.0274 64.4091 23.6316C63.8049 24.2199 63.1212 24.0927 62.2626 23.25C58.0649 19.0523 53.8673 14.8547 49.6537 10.657C49.4788 10.4821 49.3516 10.2436 49.2562 10.1005C40.9563 18.4004 32.7677 26.589 24.5473 34.8094C25.4218 34.8094 26.3758 34.7299 27.298 34.8253C28.5542 34.9684 29.3969 34.4755 30.2555 33.601C36.059 27.7339 41.9103 21.9144 47.7457 16.079C48.811 15.0137 49.3357 15.0137 50.3851 16.079C55.346 21.0399 60.3227 26.0166 65.2836 30.9775C65.4585 31.1524 65.6016 31.375 65.8242 31.6612C66.5874 30.8821 67.2393 30.1507 67.9548 29.5147C68.3364 29.1649 68.7975 28.8628 69.2745 28.672C71.8345 27.7021 74.4262 26.7639 77.002 25.8258C77.1769 25.7622 77.3677 25.6986 77.5426 25.6509C78.5603 25.4124 79.4189 26.2551 79.0691 27.2409C78.0514 30.1348 76.9861 32.9968 75.9208 35.8748C75.8095 36.161 75.5869 36.4154 75.3802 36.638C72.2956 39.7385 69.195 42.839 66.0945 45.9396C65.6652 46.3689 65.1405 46.7028 64.584 46.4166C64.2342 46.2258 63.9003 45.7965 63.7731 45.399C63.5982 44.8743 63.9957 44.4609 64.3614 44.0951C67.0485 41.4239 69.7197 38.7368 72.391 36.0656C72.55 35.9066 72.7408 35.7475 72.8521 35.6521C71.596 34.396 70.3876 33.1876 69.2109 32.011C61.5788 39.6431 53.8673 47.3547 46.2193 55.0027C47.38 56.1634 48.5884 57.3718 49.8286 58.612C49.9081 58.5325 50.083 58.3735 50.242 58.2304C52.6588 55.8295 55.0598 53.4127 57.4607 51.0117C57.6197 50.8527 57.7946 50.6778 57.9695 50.5506C58.5101 50.1531 59.2097 50.2008 59.639 50.6619C60.0683 51.1071 60.1001 51.759 59.7185 52.2837C59.6072 52.4427 59.48 52.57 59.3369 52.7131C55.9343 56.1157 52.5475 59.5024 49.1449 62.9051C47.2528 64.7813 44.8836 65.147 42.6576 63.9227C40.0977 62.4917 39.3345 58.8028 41.1153 56.4814C41.2902 56.2588 41.4333 56.0044 41.64 55.8454C42.6258 55.1617 42.7212 54.2077 42.7053 53.0947C42.6417 48.738 42.6735 44.3814 42.6894 40.0247C42.6894 38.7209 43.1028 38.3075 44.3907 38.3075C47.5072 38.3075 50.6077 38.3075 53.7242 38.3075C53.9786 38.3075 54.233 38.3234 54.4715 38.387C55.0439 38.5619 55.3619 38.9912 55.3619 39.5636C55.3619 40.1519 55.0598 40.5812 54.4874 40.7402C54.233 40.8197 53.9468 40.8197 53.6765 40.8197C51.1165 40.8197 48.5566 40.8197 45.9967 40.8197C45.7741 40.8197 45.5356 40.8197 45.2653 40.8197C45.2653 44.5881 45.2653 48.3246 45.2653 51.9498C51.4504 45.7647 57.6833 39.5477 63.8685 33.3625C58.9712 28.4653 53.9945 23.4885 48.9859 18.4799C48.8428 18.623 48.652 18.782 48.4771 18.9569C42.594 24.84 36.711 30.7072 30.8438 36.6062C30.2714 37.1786 29.6831 37.4489 28.8722 37.4171C27.6319 37.3694 26.3758 37.4012 25.0879 37.4012C25.0879 48.102 25.0879 58.771 25.0879 69.5196C25.3264 69.5196 25.5649 69.5196 25.8193 69.5196C31.5752 69.5196 37.3311 69.5196 43.0869 69.5196C43.2141 69.5196 43.3413 69.5196 43.4685 69.5196C44.5974 69.5196 45.2335 69.9807 45.2176 70.8075C45.2017 71.6184 44.5815 72.0636 43.4844 72.0636C37.5219 72.0636 31.5434 72.0636 25.5808 72.0636C25.072 72.0636 24.5632 72.0636 24.0544 72.0636C22.9732 72.0477 22.4962 71.5866 22.4962 70.5213C22.4803 68.8677 22.4962 67.214 22.4962 65.5763C22.4962 56.4496 22.4962 47.3388 22.4962 38.2121C22.4962 37.9736 22.4962 37.751 22.4962 37.433C21.5581 37.3694 20.4928 37.6397 19.9521 36.5267C19.9521 36.2723 19.9521 36.0179 19.9521 35.7634C20.2543 35.4136 20.5246 35.0479 20.8585 34.714C29.7308 25.8099 38.5713 16.9694 47.4277 8.12891C47.8252 7.73141 48.2704 7.3816 48.6997 7C48.9382 7 49.1926 7 49.447 7ZM44.1999 56.8789C43.1823 57.7057 42.4191 58.6597 42.7848 60.0748C43.0392 61.0766 43.707 61.7285 44.7087 61.967C46.1239 62.285 47.062 61.5059 47.857 60.536C46.6486 59.3116 45.4402 58.1032 44.1999 56.8789ZM75.7618 28.9741C74.299 29.5147 72.9793 29.9917 71.7073 30.4528C72.5659 31.3114 73.4086 32.1541 74.2672 33.0127C74.7283 31.7566 75.2212 30.4369 75.7618 28.9741Z" fill="#FF5F15"/>
<path d="M65.7606 72C59.957 72 54.1694 72 48.3658 72C48.1273 72 47.9047 72.0159 47.6662 71.9841C46.6645 71.8569 46.2034 70.7916 46.7917 69.9807C46.9189 69.8058 47.062 69.6627 47.221 69.5196C58.9871 57.7534 70.7374 46.0032 82.5035 34.237C82.6466 34.0939 82.8056 33.9349 82.9646 33.8077C83.7755 33.2194 84.8409 33.6805 84.9681 34.6823C84.9999 34.9049 84.984 35.1434 84.984 35.3819C84.984 46.9731 84.984 58.5643 84.984 70.1715C84.984 71.6343 84.6023 72.0159 83.1395 72.0159C77.3678 72 71.5642 72 65.7606 72ZM51.037 69.4242C61.5153 69.4242 71.9776 69.4242 82.4081 69.4242C82.4081 58.93 82.4081 48.4836 82.4081 38.1008C80.8499 39.659 79.2917 41.2172 77.6699 42.8391C77.9879 43.1412 78.3536 43.4592 78.6875 43.809C79.2917 44.445 79.3394 45.2082 78.8147 45.717C78.2741 46.2576 77.5427 46.2258 76.9067 45.5898C76.5569 45.24 76.2706 44.8107 76.0162 44.4927C74.8078 45.7011 73.7584 46.7505 72.6454 47.8635C72.9634 48.1656 73.345 48.4995 73.6948 48.8652C74.2672 49.4853 74.299 50.2167 73.8061 50.7414C73.2973 51.2662 72.5182 51.2344 71.8981 50.6301C71.5324 50.2803 71.2144 49.8987 70.9441 49.6125C69.7993 50.7573 68.7499 51.8068 67.6368 52.9039C67.9389 53.1901 68.3206 53.5081 68.6545 53.8579C69.2746 54.5098 69.3064 55.2412 68.7658 55.7659C68.2252 56.2906 67.4937 56.2588 66.8577 55.6228C66.492 55.273 66.174 54.9073 65.9514 54.6688C64.8225 55.8136 63.7572 56.863 62.676 57.9601C62.9622 58.2304 63.3279 58.5484 63.6618 58.8982C64.2342 59.5025 64.2819 60.2498 63.789 60.7745C63.2802 61.3151 62.5011 61.2833 61.881 60.6791C61.5153 60.3293 61.1973 59.9318 60.9429 59.6615C59.7821 60.8222 58.7327 61.8716 57.6197 62.9846C57.89 63.239 58.2398 63.5093 58.5578 63.8273C59.2574 64.5428 59.321 65.2742 58.7486 65.8307C58.208 66.3554 57.4448 66.2918 56.7929 65.6399C56.459 65.306 56.1728 64.9562 55.8866 64.6541C54.2012 66.2759 52.6271 67.8342 51.037 69.4242Z" fill="#FF5F15"/>
<path d="M40.3046 49.1673C40.3046 50.7573 40.3046 52.3473 40.3046 53.9215C40.3046 55.0027 39.8276 55.4797 38.7622 55.4797C35.5663 55.4797 32.3704 55.4797 29.1744 55.4797C28.0932 55.4797 27.6162 55.0027 27.6162 53.9374C27.6162 50.7414 27.6162 47.5455 27.6162 44.3495C27.6162 43.2683 28.0932 42.7913 29.1585 42.7913C32.3545 42.7913 35.5504 42.7913 38.7463 42.7913C39.8276 42.7913 40.3046 43.2683 40.3046 44.3336C40.3205 45.9555 40.3046 47.5614 40.3046 49.1673ZM37.7287 52.9356C37.7287 50.3757 37.7287 47.8635 37.7287 45.3672C35.2006 45.3672 32.7043 45.3672 30.192 45.3672C30.192 47.8953 30.192 50.4075 30.192 52.9356C32.7202 52.9356 35.2006 52.9356 37.7287 52.9356Z" fill="#FF5F15"/>
<path d="M49.0813 26.1756C51.7048 26.1756 53.8832 28.3698 53.8991 30.9934C53.8991 33.6328 51.673 35.8588 49.0336 35.827C46.4101 35.7952 44.2317 33.601 44.2476 30.9775C44.2794 28.338 46.4737 26.1597 49.0813 26.1756ZM51.355 30.9775C51.3391 29.7373 50.3215 28.7197 49.0972 28.7197C47.8411 28.7038 46.7917 29.7532 46.8076 31.0093C46.8235 32.2495 47.8411 33.2671 49.0654 33.2671C50.3215 33.283 51.355 32.2336 51.355 30.9775Z" fill="#FF5F15"/>
<path d="M60.6087 48.4041C60.5928 47.7204 61.1493 47.1321 61.833 47.1162C62.5009 47.1003 63.0892 47.6886 63.1051 48.3564C63.121 49.0242 62.5486 49.6284 61.8807 49.6443C61.197 49.6602 60.6087 49.0878 60.6087 48.4041Z" fill="#FF5F15"/>
<path d="M66.7146 24.6492C67.3665 24.6492 67.9707 25.2534 67.9707 25.9053C67.9707 26.5573 67.3665 27.1615 66.7146 27.1615C66.0627 27.1615 65.4585 26.5573 65.4585 25.9053C65.4585 25.2534 66.0627 24.6492 66.7146 24.6492Z" fill="#FF5F15"/>
<path d="M78.6557 57.2605C78.6557 59.5025 78.6557 61.7444 78.6557 63.9863C78.6557 65.2265 78.2105 65.6558 76.9703 65.6717C72.4864 65.6717 68.0026 65.6717 63.5346 65.6717C62.8509 65.6717 62.2467 65.5604 61.9764 64.8608C61.722 64.193 62.04 63.7001 62.5011 63.2231C67.0804 58.6597 71.6596 54.0805 76.223 49.5012C76.6841 49.0401 77.1929 48.7062 77.8607 48.9765C78.5603 49.2468 78.6716 49.8669 78.6716 50.5507C78.6398 52.7767 78.6557 55.0186 78.6557 57.2605ZM76.064 63.08C76.064 59.7887 76.064 56.5609 76.064 53.4604C72.868 56.6563 69.6403 59.8841 66.4443 63.08C69.5767 63.08 72.8044 63.08 76.064 63.08Z" fill="#FF5F15"/>
</g>
<defs>
<clipPath id="clip0_396_341">
<rect x="20" y="7" width="65" height="65" rx="5" fill="white"/>
</clipPath>
</defs>
</svg>
