<svg width="88" height="72" viewBox="0 0 88 72" fill="none" xmlns="http://www.w3.org/2000/svg">
<circle cx="34" cy="34" r="34" fill="#FFA67D" fill-opacity="0.38"/>
<g clip-path="url(#clip0_396_340)">
<path d="M22 35.0063C22.2066 34.5243 22.3615 33.9906 22.6541 33.5603C23.3944 32.4241 24.4617 31.8216 25.8388 31.7872C26.4413 31.77 27.0438 31.7527 27.6463 31.7872C28.0767 31.8216 28.2488 31.6667 28.421 31.2535C29.144 29.3772 29.9186 27.518 30.7277 25.6761C30.8998 25.2801 30.8826 25.0736 30.5728 24.7981C30.108 24.385 29.6776 23.9374 29.2473 23.4726C27.8185 21.9061 27.784 19.6338 29.2473 18.1017C30.8138 16.4491 32.4319 14.8482 34.0673 13.2645C35.651 11.7496 37.9405 11.8013 39.5243 13.2989C39.9718 13.7293 40.4194 14.1596 40.8498 14.6244C41.0735 14.8654 41.2457 14.8998 41.5555 14.7621C43.4663 13.9358 45.3771 13.144 47.3052 12.3693C47.6494 12.2316 47.7699 12.0939 47.7527 11.7324C47.7355 11.0955 47.7355 10.4413 47.7527 9.80439C47.8044 7.73866 49.4742 6.03443 51.5399 6C53.8122 5.96557 56.1017 5.96557 58.374 6C60.4742 6.03443 62.144 7.72144 62.1956 9.83881C62.2128 10.5102 62.1784 11.1643 62.2128 11.8357C62.23 12.0078 62.4022 12.2488 62.5743 12.3177C64.5196 13.144 66.482 13.9703 68.4444 14.7449C68.6166 14.8138 68.9264 14.7449 69.0814 14.6244C69.5289 14.2285 69.9421 13.7809 70.3724 13.3678C72.025 11.784 74.3318 11.7496 75.9843 13.3333C77.5681 14.8654 79.1346 16.4319 80.6839 18.0329C82.2159 19.6166 82.1815 21.9405 80.6666 23.5415C80.2191 24.0063 79.7371 24.4366 79.3067 24.9186C79.1862 25.0391 79.1518 25.349 79.2206 25.5039C80.0125 27.4664 80.8216 29.4288 81.6651 31.374C81.7339 31.529 81.9749 31.7183 82.1299 31.7355C82.7668 31.77 83.421 31.7527 84.0579 31.7527C86.2441 31.7872 87.9483 33.457 87.9656 35.626C88 37.8639 88 40.1017 87.9656 42.3224C87.9311 44.4742 86.2441 46.144 84.1095 46.1956C83.4898 46.2128 82.8701 46.2128 82.2332 46.1956C81.8889 46.1784 81.7339 46.2817 81.5962 46.6432C80.8388 48.5712 80.0297 50.482 79.2034 52.3928C79.0657 52.7027 79.0829 52.8748 79.3239 53.1158C79.7715 53.529 80.1846 53.9593 80.5978 54.3897C82.1643 56.0078 82.1987 58.3318 80.6494 59.9499C79.1174 61.5336 77.5508 63.1002 75.9499 64.6495C74.3318 66.216 72.025 66.1987 70.3897 64.6495C69.9593 64.2363 69.5117 63.8232 69.1158 63.3756C68.8748 63.1002 68.6854 63.1002 68.3411 63.2379C66.4476 64.0469 64.554 64.856 62.6432 65.5962C62.2645 65.7512 62.144 65.9061 62.1612 66.2848C62.1784 66.8185 62.1784 67.3521 62.1612 67.903C62.144 69.9171 61.0939 71.3114 59.1487 71.8795C59.0626 71.8967 58.9937 71.9484 58.9249 72C56.2566 72 53.6056 72 50.9374 72C50.8685 71.9656 50.7997 71.9139 50.7136 71.8795C48.7856 71.3114 47.7183 69.9171 47.7011 67.903C47.7011 67.3521 47.6839 66.784 47.7011 66.2332C47.7183 65.9233 47.615 65.7684 47.2879 65.6307C45.3427 64.856 43.4147 64.0297 41.4695 63.2379C41.2973 63.169 40.9703 63.2207 40.8325 63.3412C40.3333 63.7715 39.8858 64.288 39.4037 64.7355C37.8372 66.1815 35.5822 66.216 34.0329 64.7527C32.3631 63.169 30.7449 61.5509 29.1612 59.8811C27.698 58.349 27.7324 56.0767 29.1784 54.5274C29.6088 54.0626 30.0391 53.615 30.5039 53.2019C30.8138 52.9264 30.8138 52.7027 30.6416 52.3239C29.8325 50.482 29.0751 48.6228 28.3349 46.7465C28.18 46.385 28.0595 46.1784 27.6291 46.2128C27.0094 46.2473 26.3897 46.23 25.7699 46.2128C24.41 46.1784 23.3255 45.5759 22.5853 44.4398C22.2926 43.9922 22.1377 43.4757 21.9311 42.9937C22 40.3427 22 37.6745 22 35.0063ZM55 69.4178C56.0501 69.4178 57.1001 69.4351 58.1502 69.4178C59.1142 69.4006 59.6307 68.8842 59.6307 67.9374C59.6479 66.9734 59.6307 66.0094 59.6307 65.0454C59.6307 64.0814 59.9233 63.6854 60.8701 63.4444C63.4523 62.8075 65.8795 61.8091 68.1518 60.4147C68.9092 59.9499 69.4084 60.0188 70.0454 60.6557C70.7512 61.3443 71.4397 62.0673 72.1455 62.7387C72.8513 63.41 73.5571 63.4272 74.2457 62.7387C75.7433 61.2582 77.2238 59.7778 78.7042 58.2801C79.41 57.5743 79.41 56.8685 78.7042 56.1283C78.0156 55.4225 77.3098 54.734 76.6213 54.0282C76.0188 53.4085 75.9327 52.9264 76.3975 52.1862C77.8091 49.8795 78.8247 47.4178 79.4616 44.784C79.6682 43.9577 80.0814 43.6479 80.9421 43.6479C81.9233 43.6479 82.9217 43.6479 83.903 43.6479C84.8842 43.6307 85.4006 43.1142 85.4006 42.133C85.4178 40.0501 85.4006 37.9671 85.4006 35.8842C85.4006 34.8858 84.8842 34.3693 83.903 34.3693C82.9217 34.3521 81.9233 34.3693 80.9421 34.3693C80.0986 34.3693 79.6682 34.0595 79.4616 33.2332C78.8075 30.6166 77.8091 28.1377 76.3975 25.831C75.9499 25.0908 76.0188 24.6088 76.6213 23.989C77.3098 23.2833 78.0328 22.5947 78.7042 21.8889C79.41 21.1659 79.41 20.4601 78.7042 19.7371C77.241 18.2567 75.7606 16.7762 74.2801 15.313C73.5399 14.5728 72.8513 14.59 72.0939 15.313C71.4053 15.9844 70.7339 16.6901 70.0454 17.3615C69.4084 17.9984 68.9092 18.0673 68.1518 17.6025C65.8623 16.1909 63.4178 15.2097 60.8185 14.5556C59.9577 14.349 59.6479 13.9358 59.6479 13.0407C59.6479 12.0595 59.6479 11.061 59.6479 10.0798C59.6307 9.13302 59.1142 8.61659 58.1674 8.59938C56.0673 8.58216 53.9499 8.58216 51.8498 8.59938C50.8857 8.59938 50.3693 9.11581 50.3521 10.0798C50.3349 11.0955 50.3521 12.0939 50.3521 13.1095C50.3349 13.9186 50.025 14.349 49.2332 14.5383C46.5821 15.1925 44.1033 16.2254 41.7793 17.6369C41.0735 18.0673 40.5743 17.9812 39.989 17.4131C39.266 16.7074 38.5775 15.9844 37.8372 15.2786C37.1314 14.6072 36.4257 14.6072 35.7371 15.2786C34.2394 16.7418 32.759 18.2222 31.2786 19.7199C30.5728 20.4257 30.5728 21.1315 31.2786 21.8545C31.9671 22.5603 32.6729 23.2488 33.3615 23.9546C33.964 24.5743 34.0501 25.0736 33.5853 25.7966C32.1737 28.1033 31.1581 30.5649 30.5211 33.1987C30.3145 34.025 29.9014 34.3349 29.0407 34.3349C28.0595 34.3521 27.061 34.3349 26.0798 34.3349C25.0986 34.3521 24.5822 34.8513 24.5822 35.8498C24.5822 37.9327 24.5822 40.0156 24.5822 42.0986C24.5822 43.097 25.0986 43.6135 26.0798 43.6135C27.061 43.6307 28.0595 43.6135 29.0407 43.6135C29.8842 43.6135 30.3145 43.9405 30.5211 44.7496C31.1753 47.3662 32.1909 49.8451 33.5853 52.1518C34.0329 52.892 33.964 53.374 33.3615 53.9937C32.6729 54.6995 31.9499 55.3881 31.2786 56.0939C30.5728 56.8169 30.5728 57.5227 31.2786 58.2285C32.7418 59.7089 34.2222 61.1894 35.7027 62.6526C36.4429 63.3928 37.1314 63.3756 37.8889 62.6526C38.5775 61.9812 39.2488 61.2926 39.9374 60.6041C40.5743 59.9671 41.0735 59.8983 41.831 60.3631C44.1205 61.7574 46.5649 62.7559 49.1643 63.41C50.025 63.6338 50.3349 64.0297 50.3349 64.9249C50.3349 65.9061 50.3349 66.9045 50.3349 67.8858C50.3521 68.8326 50.8685 69.349 51.8325 69.3662C52.8826 69.4178 53.9499 69.4178 55 69.4178Z" fill="#FF5F15"/>
<path d="M52.7963 37.9155C55.1891 35.5227 57.4787 33.1988 59.8026 30.9093C61.3347 29.3944 63.5553 29.1878 65.294 30.3412C67.4802 31.8044 67.9106 34.8341 66.1547 36.8138C65.5522 37.4852 64.8981 38.1049 64.2611 38.7418C61.5585 41.4445 58.8558 44.1471 56.1531 46.8498C54.0702 48.9327 51.5569 48.9155 49.4568 46.8326C47.632 45.0078 45.7901 43.2003 43.9998 41.3584C42.7087 40.0329 42.4161 38.1737 43.1563 36.5212C43.8793 34.9202 45.5319 33.9046 47.2877 33.9734C48.4239 34.0251 49.4051 34.4726 50.2142 35.2817C51.0577 36.1424 51.9012 37.0032 52.7963 37.9155ZM64.7776 34.0079C64.6571 33.216 64.1923 32.5618 63.5037 32.3036C62.6602 31.9938 62.006 32.3036 61.4208 32.9061C58.9591 35.385 56.4802 37.8639 54.0014 40.3255C53.1062 41.2207 52.5037 41.2207 51.5913 40.3083C50.5413 39.2582 49.5084 38.2082 48.4411 37.1753C47.632 36.3834 46.5992 36.349 45.8589 37.072C45.1187 37.795 45.1359 38.8623 45.9106 39.6542C47.7525 41.5133 49.6117 43.3725 51.4708 45.2144C52.2971 46.0235 53.2956 46.0407 54.1046 45.2316C57.4442 41.9093 60.7666 38.5869 64.0718 35.2473C64.3988 34.9374 64.5538 34.421 64.7776 34.0079Z" fill="#FF5F15"/>
<path d="M55 18.2567C65.6213 18.3944 74.59 26.5884 75.5195 37.1064C75.8638 41.0657 75.1408 44.784 73.385 48.3302C72.9718 49.1737 72.2832 49.4836 71.5775 49.1565C70.8544 48.8122 70.6651 48.072 71.0782 47.1768C74.3834 39.964 73.6776 33.1815 68.5133 27.1221C63.1768 20.856 54.3631 19.2207 46.9953 22.8357C46.8576 22.9045 46.7199 22.9734 46.5822 23.025C45.8591 23.3177 45.1361 23.0767 44.8263 22.4225C44.5164 21.7684 44.7402 21.011 45.4976 20.7183C47.0469 20.0814 48.579 19.41 50.1972 18.9969C51.7465 18.5837 53.399 18.4804 55 18.2567Z" fill="#FF5F15"/>
<path d="M54.9483 59.6229C44.5681 59.5712 35.892 51.928 34.5493 41.5822C33.9984 37.3819 34.7386 33.3709 36.6667 29.601C37.0798 28.7919 37.7684 28.5165 38.457 28.8607C39.1455 29.205 39.3865 29.928 38.9734 30.7371C37.5446 33.5603 36.8904 36.5384 36.9765 39.6886C37.1831 48.0548 43.759 55.5258 52.0219 56.8169C55.8951 57.4194 59.579 56.8686 63.108 55.1471C63.1596 55.1127 63.2285 55.0955 63.2801 55.0611C64.0892 54.6823 64.8294 54.8717 65.1565 55.5431C65.518 56.2488 65.2426 57.0063 64.3818 57.3678C62.9875 57.9531 61.5759 58.59 60.1127 58.9515C58.4429 59.3647 56.7042 59.5196 54.9828 59.795C54.9656 59.7262 54.9483 59.6745 54.9483 59.6229Z" fill="#FF5F15"/>
<path d="M42.6055 25.3318C42.6055 26.0376 42.003 26.6401 41.2972 26.6229C40.6086 26.6057 40.0405 26.0376 40.0405 25.349C40.0405 24.626 40.6258 24.0407 41.3488 24.0579C42.0374 24.0751 42.6055 24.6432 42.6055 25.3318Z" fill="#FF5F15"/>
<path d="M68.651 51.3771C69.3396 51.3771 69.9249 51.928 69.9421 52.6166C69.9593 53.3396 69.3912 53.9421 68.6682 53.9421C67.9624 53.9593 67.3599 53.3568 67.3599 52.6338C67.3944 51.9796 67.9796 51.3944 68.651 51.3771Z" fill="#FF5F15"/>
</g>
<defs>
<clipPath id="clip0_396_340">
<rect x="22" y="6" width="66" height="66" rx="5" fill="white"/>
</clipPath>
</defs>
</svg>
