<svg width="87" height="80" viewBox="0 0 87 80" fill="none" xmlns="http://www.w3.org/2000/svg">
<circle cx="34" cy="34" r="34" fill="#FFA67D" fill-opacity="0.38"/>
<path d="M35.4756 26.2835C34.4419 24.3765 33.4082 22.4517 32.3567 20.5447C31.9468 19.7962 31.9112 19.0655 32.4458 18.3526C32.9805 17.6931 33.6934 17.5327 34.4954 17.7466C35.3331 17.9605 36.1707 18.21 36.9905 18.4773C37.347 18.5843 37.5965 18.5486 37.8638 18.2635C38.3629 17.711 38.9153 17.1763 39.4678 16.6594C40.4124 15.7505 41.5887 15.8218 42.4085 16.8733C42.7293 17.2832 43.0501 17.711 43.4244 18.2278C43.9234 17.711 44.3868 17.2298 44.8502 16.7486C45.9017 15.697 47.0602 15.7862 47.9691 16.9803C48.3255 17.4615 48.682 17.9427 49.0741 18.4595C49.7157 18.1387 50.3216 17.8357 50.9454 17.5506C51.8009 17.1407 52.5673 17.2119 53.1732 17.7644C53.7792 18.3169 53.9217 19.0833 53.5653 19.9566C52.7633 21.9349 51.9613 23.9131 51.1415 25.8736C50.9989 26.23 50.9989 26.4974 51.2128 26.8538C51.7118 27.6558 52.1573 28.5113 52.5672 29.3668C52.7455 29.741 52.9593 29.8658 53.3693 29.8658C54.5812 29.8302 55.8109 29.848 57.1298 29.848C57.1298 29.5806 57.1298 29.3489 57.1298 29.1173C57.1298 25.5884 57.1298 22.0418 57.1298 18.513C57.1298 17.3723 57.4506 17.0337 58.5912 17.0337C61.9062 17.0337 65.2211 17.0337 68.5361 17.0337C69.5876 17.0337 69.944 17.3902 69.944 18.4239C69.944 22.8438 69.944 27.2816 69.944 31.7015C69.944 31.9332 69.944 32.1827 69.944 32.6461C70.7639 31.8263 71.4233 31.1312 72.1005 30.4361C72.9025 29.6163 73.3659 29.6163 74.1679 30.4183C76.8234 33.0738 79.479 35.7293 82.1345 38.3849C82.5444 38.7948 82.9187 39.2047 82.6335 39.8463C82.3662 40.4701 81.8315 40.5414 81.2434 40.5057C81.0473 40.5057 80.8513 40.5057 80.6374 40.5057C80.6374 42.0741 80.6374 43.5712 80.6374 44.9435C81.5642 44.9257 82.5088 44.7474 83.3999 44.9257C85.396 45.2999 86.6792 47.3139 86.394 49.3278C85.7881 53.5873 84.7366 57.6865 82.5088 61.4113C77.8928 69.1106 71.1916 73.78 62.3517 75.2949C60.7477 75.5801 59.0724 75.6692 57.4506 75.687C49.8048 75.7227 42.159 75.7048 34.5132 75.7048C34.2459 75.7048 33.9964 75.7048 33.6756 75.7048C33.6756 76.4356 33.6934 77.095 33.6756 77.7544C33.6578 79.0911 32.7666 79.9822 31.43 79.9822C29.3626 80 27.2952 80 25.2278 79.9822C23.9089 79.9822 23 79.0911 23 77.7722C23 70.0017 23 62.249 23 54.4963C23 53.1418 23.9089 52.2506 25.2634 52.2506C27.313 52.2506 29.3626 52.2328 31.3943 52.2506C32.7666 52.2506 33.6399 53.1418 33.6578 54.5141C33.6578 55.1913 33.6578 55.8686 33.6578 56.5815C35.0479 55.9042 36.3489 55.1913 37.7034 54.6032C41.2679 53.0527 45.0284 52.2863 48.9137 52.2685C54.0287 52.2506 59.1437 52.2685 64.2587 52.2506C66.8073 52.2506 68.5717 53.3735 69.5698 55.726C69.6054 55.8329 69.6767 55.922 69.748 56.0646C71.6371 55.2448 73.5085 54.4428 75.3798 53.6408C75.4689 53.6051 75.5759 53.516 75.6293 53.4269C76.3422 52.0011 77.0551 50.5753 77.8215 49.0604C77.4472 49.0604 77.1977 49.0604 76.9482 49.0604C63.6706 49.0604 50.3929 49.0604 37.1331 49.0604C33.9429 49.0604 31.43 47.1713 30.6814 44.2128C30.6101 43.9633 30.5567 43.6959 30.521 43.4286C30.1111 37.9037 30.9309 32.6639 34.139 27.9766C34.5132 27.3885 34.9766 26.8895 35.4756 26.2835ZM33.6756 73.584C33.9073 73.584 34.032 73.584 34.1746 73.584C42.1947 73.584 50.2325 73.6196 58.2526 73.5662C63.0646 73.5305 67.5737 72.2295 71.6371 69.6631C78.5344 65.3144 82.5979 59.0588 83.9702 51.0387C84.0771 50.4328 84.1841 49.809 84.291 49.203C84.4692 48.1872 83.988 47.3495 83.0969 47.0109C82.1701 46.6723 81.2434 47.0465 80.7622 48.0089C79.6572 50.1654 78.6057 52.3398 77.4829 54.4784C77.269 54.8884 76.8413 55.2804 76.4135 55.4765C74.4174 56.3854 72.3857 57.2231 70.3718 58.1142C70.1579 58.2033 69.9084 58.4528 69.8371 58.6845C69.1064 61.3757 67.1459 62.9084 64.33 62.9084C58.9655 62.9084 53.6188 62.9084 48.2542 62.9084C48.0404 62.9084 47.8265 62.9084 47.577 62.9084C47.577 62.1777 47.577 61.5004 47.577 60.7697C47.88 60.7697 48.1473 60.7697 48.3968 60.7697C53.7613 60.7697 59.108 60.7697 64.4726 60.7697C66.3617 60.7697 67.7875 59.3974 67.8053 57.5973C67.8232 55.7795 66.3796 54.3715 64.4547 54.3715C59.2506 54.3715 54.0465 54.3359 48.8424 54.3893C43.5135 54.4428 38.6124 55.9933 34.139 58.8806C33.7825 59.1122 33.6399 59.3439 33.6399 59.7895C33.6578 64.1738 33.6578 68.5403 33.6578 72.9246C33.6756 73.1206 33.6756 73.3166 33.6756 73.584ZM50.482 29.8302C50.1612 29.2598 49.8939 28.7786 49.6444 28.2974C49.4305 27.8519 49.1275 27.6915 48.5929 27.6915C45.0106 27.7271 41.4461 27.7271 37.8638 27.6915C37.2222 27.6915 36.8301 27.9053 36.4559 28.3865C35.0479 30.2222 34.1033 32.2896 33.3726 34.464C32.5171 37.0482 32.5706 39.7037 32.5884 42.3771C32.6062 45.1217 34.3885 46.9218 37.1509 46.9218C40.3946 46.9218 43.6383 46.9218 46.8819 46.9218C47.0958 46.9218 47.3097 46.9218 47.5414 46.9218C47.5414 46.5475 47.5414 46.2802 47.5414 46.0128C47.5414 41.076 47.5414 36.1571 47.5414 31.2203C47.5414 30.2222 47.8978 29.848 48.8958 29.848C49.3949 29.8302 49.8761 29.8302 50.482 29.8302ZM65.6488 46.8683C65.6488 44.7118 65.6488 42.6266 65.6488 40.4879C65.3815 40.4879 65.1498 40.4701 64.936 40.4879C64.3656 40.5236 63.8666 40.381 63.6349 39.7928C63.4211 39.2225 63.7062 38.8304 64.0983 38.4383C65.2033 37.3512 66.2904 36.2284 67.4133 35.1412C67.7341 34.8382 67.841 34.5352 67.841 34.0897C67.8232 29.3311 67.841 24.5726 67.8232 19.814C67.8232 19.6001 67.8053 19.3863 67.7875 19.1724C64.9181 19.1724 62.12 19.1724 59.3219 19.1724C59.3219 28.4222 59.3219 37.6185 59.3219 46.8327C61.4428 46.8683 63.5102 46.8683 65.6488 46.8683ZM31.4834 77.8257C31.4834 69.9839 31.4834 62.1955 31.4834 54.425C29.3447 54.425 27.2417 54.425 25.1565 54.425C25.1565 62.249 25.1565 70.0195 25.1565 77.8257C27.2952 77.8257 29.3626 77.8257 31.4834 77.8257ZM57.1119 46.8683C57.1119 41.878 57.1119 36.9413 57.1119 32.0045C54.6168 32.0045 52.1573 32.0045 49.7157 32.0045C49.7157 36.9769 49.7157 41.9137 49.7157 46.8683C52.193 46.8683 54.6168 46.8683 57.1119 46.8683ZM46.0799 25.5528C46.971 25.5528 47.7374 25.535 48.5038 25.5528C48.8424 25.5706 49.0206 25.4459 49.1275 25.1251C49.5375 24.0735 49.983 23.022 50.4107 21.9883C50.6959 21.2754 50.9811 20.5625 51.3375 19.7071C50.7672 19.9744 50.3573 20.1883 49.9474 20.3843C48.9315 20.8655 48.1117 20.6695 47.4166 19.7962C47.0423 19.315 46.6681 18.816 46.2581 18.2813C45.7235 18.8338 45.2601 19.3328 44.7611 19.814C43.7808 20.7586 42.6224 20.6695 41.7847 19.5823C41.4639 19.1724 41.1431 18.7447 40.7867 18.2813C40.1986 18.8694 39.6639 19.3863 39.147 19.9566C38.452 20.7229 37.65 20.9368 36.6876 20.5982C36.0103 20.3665 35.3152 20.2061 34.4776 19.9566C35.2974 21.4537 36.0103 22.8082 36.741 24.1448C37.543 25.6419 37.543 25.6419 39.2718 25.535C39.2896 25.535 39.3074 25.5171 39.3965 25.4815C39.0757 24.7864 38.7549 24.0914 38.4163 23.3785C39.0936 23.0577 39.6995 22.7725 40.3233 22.4695C40.7689 23.3963 41.1788 24.2696 41.6065 25.1072C41.6956 25.2676 41.8382 25.5171 41.963 25.5171C42.4976 25.5706 43.0501 25.6419 43.5492 25.4815C43.8165 25.4102 43.9591 24.9112 44.1551 24.5904C44.3333 24.2874 44.4759 23.9488 44.6363 23.6458C44.9393 23.0577 45.2423 22.4874 45.5452 21.8814C46.2225 22.22 46.8106 22.523 47.4344 22.826C46.9889 23.7349 46.5611 24.5904 46.0799 25.5528ZM67.4311 38.3136C71.2451 38.3136 75.1125 38.3136 78.873 38.3136C76.966 36.4066 75.0412 34.464 73.152 32.5748C71.2807 34.464 69.3559 36.3888 67.4311 38.3136ZM78.4809 40.5414C74.8986 40.5414 71.3876 40.5414 67.8766 40.5414C67.8766 42.6801 67.8766 44.7831 67.8766 46.8683C68.5895 46.8683 69.249 46.8683 69.9618 46.8683C69.9618 45.4782 69.944 44.1237 69.9618 42.7692C69.9618 41.985 70.3718 41.5751 71.1559 41.5751C72.5104 41.5572 73.8649 41.5572 75.2194 41.5751C75.9323 41.5929 76.3244 41.985 76.3601 42.6979C76.3779 42.9652 76.3601 43.2325 76.3601 43.4999C76.3601 44.6227 76.3601 45.7455 76.3601 46.8505C77.1264 46.8505 77.8037 46.8505 78.4809 46.8505C78.4809 44.7296 78.4809 42.6622 78.4809 40.5414ZM72.1362 43.7316C72.1362 44.8009 72.1362 45.8346 72.1362 46.8505C72.8491 46.8505 73.5263 46.8505 74.1857 46.8505C74.1857 45.7811 74.1857 44.7831 74.1857 43.7316C73.5085 43.7316 72.8491 43.7316 72.1362 43.7316Z" fill="#FF5F15"/>
<path d="M81.689 20.2239C81.689 20.9011 81.689 21.5962 81.689 22.3269C80.9939 22.3269 80.3167 22.3269 79.5681 22.3269C79.5681 21.6318 79.5681 20.9368 79.5681 20.2239L79.5503 20.2417C80.2632 20.2417 80.9939 20.2417 81.7068 20.2417L81.689 20.2239Z" fill="#FF5F15"/>
<path d="M25.1389 25.5706C25.1389 24.8933 25.1389 24.1982 25.1389 23.4675C25.834 23.4675 26.5112 23.4675 27.2598 23.4675C27.2598 24.1626 27.2598 24.8577 27.2598 25.5706L27.2776 25.5527C26.5647 25.5527 25.834 25.5527 25.1211 25.5527L25.1389 25.5706Z" fill="#FF5F15"/>
<path d="M86.9998 23.4675C86.9998 24.1804 86.9998 24.8398 86.9998 25.5171C86.3047 25.5171 85.6631 25.5171 84.9502 25.5171C84.9502 24.8577 84.9502 24.1804 84.9502 23.4675C85.6096 23.4675 86.2869 23.4675 86.9998 23.4675Z" fill="#FF5F15"/>
<path d="M25.1387 27.6915C24.4614 27.6915 23.7664 27.6915 23.0356 27.6915C23.0356 26.9964 23.0356 26.3192 23.0356 25.5706C23.7307 25.5706 24.4258 25.5706 25.1387 25.5706L25.1209 25.5528C25.1209 26.2657 25.1209 26.9964 25.1209 27.7093L25.1387 27.6915Z" fill="#FF5F15"/>
<path d="M77.4828 26.64C78.1779 26.64 78.8195 26.64 79.5146 26.64C79.5146 27.3172 79.5146 27.9945 79.5146 28.7073C78.8552 28.7073 78.1779 28.7073 77.4828 28.7073C77.4828 28.0301 77.4828 27.335 77.4828 26.64Z" fill="#FF5F15"/>
<path d="M27.2598 27.6915C27.2598 28.3687 27.2598 29.0638 27.2598 29.7945C26.5647 29.7945 25.8875 29.7945 25.1389 29.7945C25.1389 29.0994 25.1389 28.4044 25.1389 27.6915L25.1211 27.7093C25.834 27.7093 26.5647 27.7093 27.2776 27.7093L27.2598 27.6915Z" fill="#FF5F15"/>
<path d="M27.2598 25.5706C27.937 25.5706 28.6321 25.5706 29.3628 25.5706C29.3628 26.2657 29.3628 26.9429 29.3628 27.6915C28.6677 27.6915 27.9727 27.6915 27.2598 27.6915L27.2776 27.7093C27.2776 26.9964 27.2776 26.2657 27.2776 25.5528L27.2598 25.5706Z" fill="#FF5F15"/>
<path d="M25.103 34.1253C25.103 34.8204 25.103 35.4798 25.103 36.1749C24.4258 36.1749 23.7485 36.1749 23.0356 36.1749C23.0356 35.4976 23.0356 34.8382 23.0356 34.1253C23.7129 34.1253 24.3723 34.1253 25.103 34.1253Z" fill="#FF5F15"/>
<path d="M29.3626 18.0674C28.6497 18.0674 28.0081 18.0674 27.313 18.0674C27.313 17.3901 27.313 16.7307 27.313 16.0178C27.9724 16.0178 28.6497 16.0178 29.3626 16.0178C29.3626 16.6594 29.3626 17.3367 29.3626 18.0674Z" fill="#FF5F15"/>
<path d="M79.5681 18.103C79.5681 17.4258 79.5681 16.7307 79.5681 16C80.2632 16 80.9404 16 81.689 16C81.689 16.6951 81.689 17.3901 81.689 18.103L81.7068 18.0852C80.9939 18.0852 80.2632 18.0852 79.5503 18.0852L79.5681 18.103Z" fill="#FF5F15"/>
<path d="M79.5679 20.2239C78.8906 20.2239 78.1956 20.2239 77.4648 20.2239C77.4648 19.5288 77.4648 18.8516 77.4648 18.103C78.1599 18.103 78.855 18.103 79.5679 18.103L79.5501 18.0852C79.5501 18.7981 79.5501 19.5288 79.5501 20.2417L79.5679 20.2239Z" fill="#FF5F15"/>
<path d="M81.689 18.103C82.3662 18.103 83.0613 18.103 83.792 18.103C83.792 18.7981 83.792 19.4753 83.792 20.2239C83.0969 20.2239 82.4019 20.2239 81.689 20.2239L81.7068 20.2417C81.7068 19.5288 81.7068 18.7981 81.7068 18.0852L81.689 18.103Z" fill="#FF5F15"/>
<path d="M41.1611 33.0382C41.1611 32.6461 41.1611 32.3431 41.1611 32.0045C41.8562 32.0045 42.5156 32.0045 43.2464 32.0045C43.2642 32.3253 43.282 32.6461 43.2998 32.8243C43.9949 33.0738 44.7256 33.1451 45.1712 33.555C45.492 33.8402 45.4029 34.5709 45.5098 35.1768C44.6721 35.1768 43.9949 35.1768 43.3176 35.1768C42.6226 35.1768 41.9453 35.1768 41.2146 35.1768C41.2146 35.5155 41.2146 35.8363 41.2146 36.2462C42.1414 36.2462 43.1038 36.2462 44.0484 36.2462C45.0821 36.2462 45.4385 36.6026 45.4385 37.6541C45.4385 38.5274 45.4385 39.3829 45.4385 40.2562C45.4385 41.2008 45.0642 41.575 44.1018 41.575C43.8701 41.575 43.6206 41.575 43.3355 41.575C43.3176 41.9315 43.2998 42.2345 43.282 42.5909C42.6048 42.5909 41.9453 42.5909 41.1968 42.5909C41.179 42.2879 41.1611 41.9671 41.1433 41.8067C40.4482 41.5572 39.7175 41.4859 39.272 41.076C38.9512 40.7909 39.0403 40.0601 38.9512 39.472C40.4661 39.472 41.8384 39.472 43.2464 39.472C43.2464 39.1156 43.2464 38.7948 43.2464 38.3849C42.3018 38.3849 41.3572 38.3849 40.4126 38.3849C39.3789 38.3849 39.0225 38.0284 39.0225 36.9769C39.0225 36.1036 39.0225 35.2481 39.0225 34.3748C39.0225 33.4302 39.3967 33.056 40.3591 33.056C40.5908 33.0381 40.8225 33.0382 41.1611 33.0382Z" fill="#FF5F15"/>
<path d="M61.4427 36.1927C61.4427 35.4976 61.4427 34.8382 61.4427 34.1431C61.7636 34.1431 62.0844 34.1431 62.4408 34.1431C62.4408 34.8204 62.4408 35.4976 62.4408 36.1927C62.12 36.1927 61.817 36.1927 61.4427 36.1927Z" fill="#FF5F15"/>
<path d="M65.6487 23.3962C65.3101 23.3962 65.0071 23.3962 64.6685 23.3962C64.6685 22.7012 64.6685 22.0239 64.6685 21.311C65.0071 21.311 65.3101 21.311 65.6487 21.311C65.6487 21.9883 65.6487 22.6655 65.6487 23.3962Z" fill="#FF5F15"/>
<path d="M62.4408 23.4141C62.1022 23.4141 61.817 23.4141 61.4784 23.4141C61.4784 22.7368 61.4784 22.0596 61.4784 21.3467C61.7814 21.3467 62.0844 21.3467 62.4408 21.3467C62.4408 22.0239 62.4408 22.719 62.4408 23.4141Z" fill="#FF5F15"/>
<path d="M65.631 27.6737C65.3102 27.6737 65.0073 27.6737 64.6508 27.6737C64.6508 26.9786 64.6508 26.3013 64.6508 25.6063C64.9716 25.6063 65.2746 25.6063 65.631 25.6063C65.631 26.2479 65.631 26.9251 65.631 27.6737Z" fill="#FF5F15"/>
<path d="M65.6665 34.1431C65.6665 34.8204 65.6665 35.4798 65.6665 36.1927C65.3635 36.1927 65.0427 36.1927 64.6685 36.1927C64.6685 35.5333 64.6685 34.856 64.6685 34.1431C64.9893 34.1431 65.3101 34.1431 65.6665 34.1431Z" fill="#FF5F15"/>
<path d="M62.4585 27.6737C62.1199 27.6737 61.8169 27.6737 61.4604 27.6737C61.4604 26.9964 61.4604 26.3192 61.4604 25.6063C61.7812 25.6063 62.102 25.6063 62.4585 25.6063C62.4585 26.2835 62.4585 26.9429 62.4585 27.6737Z" fill="#FF5F15"/>
<path d="M62.4585 29.8658C62.4585 30.543 62.4585 31.2025 62.4585 31.9154C62.1555 31.9154 61.8347 31.9154 61.4604 31.9154C61.4604 31.2559 61.4604 30.5787 61.4604 29.8658C61.7812 29.8658 62.102 29.8658 62.4585 29.8658Z" fill="#FF5F15"/>
<path d="M64.6508 31.9154C64.6508 31.2025 64.6508 30.543 64.6508 29.8658C64.9894 29.8658 65.2924 29.8658 65.631 29.8658C65.631 30.5252 65.631 31.2025 65.631 31.9154C65.3281 31.9154 65.0251 31.9154 64.6508 31.9154Z" fill="#FF5F15"/>
<path d="M27.2954 60.7341C27.2954 59.6825 27.2954 58.6667 27.2954 57.6152C27.9905 57.6152 28.6677 57.6152 29.3628 57.6152C29.3628 58.6489 29.3628 59.6647 29.3628 60.7341C28.7034 60.7341 28.0261 60.7341 27.2954 60.7341Z" fill="#FF5F15"/>
<path d="M52.8523 36.2105C52.5315 36.2105 52.2285 36.2105 51.8721 36.2105C51.8721 35.5511 51.8721 34.8738 51.8721 34.1431C52.175 34.1431 52.4959 34.1431 52.8523 34.1431C52.8523 34.8204 52.8523 35.4976 52.8523 36.2105Z" fill="#FF5F15"/>
<path d="M56.0606 34.1431C56.0606 34.8204 56.0606 35.4798 56.0606 36.1927C55.7576 36.1927 55.4368 36.1927 55.0625 36.1927C55.0625 35.5333 55.0625 34.856 55.0625 34.1431C55.3833 34.1431 55.7041 34.1431 56.0606 34.1431Z" fill="#FF5F15"/>
<path d="M51.8545 38.3848C52.1931 38.3848 52.4961 38.3848 52.8525 38.3848C52.8525 39.0621 52.8525 39.7393 52.8525 40.4522C52.5317 40.4522 52.2109 40.4522 51.8545 40.4522C51.8545 39.775 51.8545 39.1334 51.8545 38.3848Z" fill="#FF5F15"/>
<path d="M55.0625 40.4522C55.0625 39.775 55.0625 39.0977 55.0625 38.3848C55.4011 38.3848 55.7041 38.3848 56.0427 38.3848C56.0427 39.0621 56.0427 39.7393 56.0427 40.4522C55.7219 40.4522 55.4011 40.4522 55.0625 40.4522Z" fill="#FF5F15"/>
<path d="M56.0427 44.7653C55.7041 44.7653 55.4011 44.7653 55.0625 44.7653C55.0625 44.088 55.0625 43.4108 55.0625 42.6979C55.3655 42.6979 55.6685 42.6979 56.0427 42.6979C56.0427 43.3573 56.0427 44.0167 56.0427 44.7653Z" fill="#FF5F15"/>
<path d="M52.8345 44.7474C52.478 44.7474 52.1751 44.7474 51.8364 44.7474C51.8364 44.0702 51.8364 43.4108 51.8364 42.6979C52.1394 42.6979 52.4602 42.6979 52.8345 42.6979C52.8345 43.3395 52.8345 44.0167 52.8345 44.7474Z" fill="#FF5F15"/>
</svg>
