<svg width="56" height="59" viewBox="0 0 56 59" fill="none" xmlns="http://www.w3.org/2000/svg">
<g clip-path="url(#clip0_18_227)">
<path d="M20.4968 -1.09803e-06C21.6387 0.427201 22.0655 1.25851 22.0194 2.47084C21.9617 3.98337 22.0078 3.98337 23.4035 4.51448C24.0264 4.75695 24.6492 5.01096 25.2259 5.34579C25.6873 5.61135 25.9757 5.55362 26.2987 5.16106C26.5755 4.82622 26.91 4.52603 27.2329 4.22583C28.2134 3.26751 29.5629 3.38297 30.3819 4.47984C30.6818 4.88395 30.6587 5.27652 30.3127 5.6229C29.9666 5.96928 29.5168 6.03855 29.1823 5.66908C28.744 5.19569 28.4787 5.35734 28.1326 5.7499C27.8327 6.09628 27.4982 6.41957 27.1637 6.73131C26.5063 7.34325 25.6758 7.45871 24.8684 7.10078C23.7957 6.63894 22.723 6.18865 21.6387 5.76145C20.7967 5.42661 20.3007 4.76849 20.2661 3.82172C20.2546 3.27906 20.2546 2.74794 20.2661 2.20528C20.2776 1.882 20.1854 1.70881 19.8163 1.72035C18.8243 1.7319 17.8208 1.7319 16.8288 1.72035C16.4713 1.72035 16.3559 1.8589 16.3559 2.19374C16.3674 2.74794 16.3674 3.30215 16.3559 3.86791C16.3328 4.78004 15.8484 5.41507 15.0064 5.7499C13.9221 6.1771 12.8494 6.6274 11.7767 7.08924C10.9578 7.45871 10.1388 7.34325 9.45828 6.69667C8.9969 6.25793 8.55859 5.80763 8.09721 5.36888C8.07414 5.34579 8.028 5.33425 7.92419 5.28806C7.45127 5.76145 6.94376 6.24638 6.44777 6.7544C6.06713 7.14697 5.40967 7.56262 5.39813 7.96673C5.3866 8.37084 6.04406 8.7865 6.41317 9.19061C6.52851 9.31761 6.65539 9.43307 6.77074 9.56008C7.34746 10.2182 7.4282 10.9571 7.10524 11.7538C6.65539 12.8507 6.19401 13.9476 5.74417 15.0444C5.40967 15.8642 4.80987 16.3491 3.91018 16.3722C3.35653 16.3953 2.80287 16.3953 2.23768 16.3722C1.88011 16.3607 1.70709 16.4646 1.71863 16.8571C1.7417 17.8386 1.7417 18.82 1.71863 19.7898C1.70709 20.1708 1.85704 20.2978 2.22614 20.2863C2.72213 20.2632 3.21811 20.2748 3.72563 20.2863C4.7868 20.2978 5.4212 20.7943 5.80184 21.7873C6.19401 22.8033 6.60926 23.8078 7.0591 24.8123C7.46281 25.7245 7.38207 26.5327 6.67846 27.237C6.20555 27.7104 5.69803 28.1376 5.13284 28.6456C6.10174 29.6039 6.94376 30.4468 7.79731 31.255C7.86652 31.3243 8.16641 31.255 8.27022 31.1626C8.67393 30.8047 9.0315 30.4121 9.42367 30.0311C10.1734 29.3037 10.9578 29.1998 11.8921 29.627C12.884 30.0773 13.8875 30.493 14.9141 30.8855C15.8715 31.255 16.3559 31.8785 16.379 32.9176C16.3905 33.4372 16.3905 33.9568 16.379 34.4763C16.3674 34.8227 16.5059 34.9613 16.8519 34.9613C17.8439 34.9497 18.8474 34.9497 19.8393 34.9613C20.1969 34.9613 20.3007 34.7996 20.2892 34.4648C20.2661 33.9221 20.2776 33.391 20.2892 32.8483C20.3122 31.9362 20.8198 31.2319 21.6156 30.9433C22.1232 30.7585 22.5384 30.8971 22.746 31.3127C22.9652 31.7515 22.8037 32.1787 22.3769 32.502C22.2039 32.6405 22.054 32.9061 22.0309 33.1254C21.9847 33.6797 22.0309 34.2339 22.0078 34.7996C21.9732 35.8041 21.2465 36.6123 20.243 36.647C18.9742 36.6932 17.7054 36.6932 16.4482 36.647C15.4216 36.6008 14.7065 35.8041 14.6603 34.7419C14.6373 34.1877 14.6373 33.6335 14.6603 33.0677C14.6719 32.756 14.5796 32.5943 14.2682 32.4789C13.2301 32.0748 12.2266 31.6245 11.1885 31.2204C11.027 31.1626 10.7386 31.1973 10.6002 31.3127C10.1619 31.6822 9.78124 32.1209 9.366 32.5251C8.54705 33.2986 7.43974 33.3102 6.62079 32.5366C5.77877 31.7284 4.94829 30.8971 4.14087 30.0542C3.36806 29.2344 3.40266 28.1376 4.18701 27.3178C4.55611 26.9252 4.93675 26.5442 5.32893 26.1748C5.58268 25.9438 5.59422 25.736 5.4558 25.4243C5.01749 24.4429 4.60225 23.4615 4.22161 22.457C4.09473 22.1337 3.94479 21.9951 3.59875 22.0182C3.06816 22.0413 2.52604 22.0297 1.98392 22.0182C0.842004 21.9951 0.0345885 21.1869 0.0115195 20.0554C-1.49733e-05 18.9239 -1.49733e-05 17.7924 0.0115195 16.6609C0.023054 15.5178 0.818935 14.7096 1.97239 14.6634C2.52604 14.6403 3.0797 14.6403 3.64489 14.6634C3.96785 14.675 4.10627 14.5364 4.22161 14.2362C4.61379 13.2202 5.06363 12.2272 5.4558 11.2112C5.52501 11.038 5.46734 10.7262 5.35199 10.5761C4.99442 10.1489 4.56765 9.791 4.18701 9.37534C3.36806 8.50939 3.39113 7.40098 4.22161 6.54658C4.99442 5.7499 5.77877 4.96477 6.57465 4.19119C7.40514 3.38297 8.50091 3.37143 9.35447 4.15656C9.75817 4.53757 10.1503 4.93014 10.531 5.33425C10.7501 5.56517 10.9347 5.58826 11.2346 5.44971C12.2266 5.01096 13.2531 4.61839 14.2451 4.1681C14.4181 4.08728 14.5911 3.84481 14.6257 3.64853C14.6834 3.29061 14.6719 2.92113 14.6373 2.55166C14.5335 1.35088 14.9718 0.461839 16.1137 -0.0115471C17.5786 -1.09803e-06 19.0434 -1.09803e-06 20.4968 -1.09803e-06Z" fill="#FF5F15"/>
<path d="M21.7654 19.0509C21.6847 16.811 22.1115 14.7211 23.2534 12.8391C25.3988 9.28297 28.5593 7.42407 32.7232 7.25088C35.2723 7.14697 37.6946 7.57417 39.8515 9.00587C43.0927 11.165 44.7883 14.2131 44.9959 18.1041C45.0075 18.3928 45.0075 18.6814 45.019 18.9701C45.019 18.9932 45.0305 19.0047 45.0536 19.074C45.9994 19.3973 46.6684 20.0207 46.7838 21.0945C46.8876 22.0297 46.5646 22.8033 45.7687 23.3229C45.4573 23.5192 45.365 23.727 45.3881 24.0618C45.4112 24.466 45.3996 24.8701 45.3881 25.2742C45.365 26.498 44.696 27.3871 43.508 27.7219C43.2427 27.7912 43.1043 27.872 43.0581 28.1838C42.689 30.6777 41.4779 32.6751 39.4709 34.1992C39.171 34.4301 39.0095 34.6495 39.0441 35.0421C39.0903 35.5732 38.8942 36.266 39.1595 36.5892C39.4363 36.9125 40.1399 36.8779 40.6705 36.9818C43.5195 37.5591 46.3801 38.1018 49.2291 38.7368C50.5786 39.037 51.8243 39.6605 52.9432 40.4918C54.8233 41.8889 55.9191 43.7593 55.9652 46.1147C56.0344 49.2667 56.0229 52.4072 55.9883 55.5593C55.9652 57.5798 54.4196 58.9885 52.3549 58.9885C44.4538 58.9885 36.5527 58.9885 28.64 58.9885C23.957 58.9885 19.274 58.9885 14.6025 58.9885C12.2264 58.9885 10.7731 57.5337 10.7731 55.1436C10.7731 52.5343 10.8307 49.9133 10.7615 47.3039C10.6346 42.5239 13.3568 40.0992 16.8171 38.9793C18.8703 38.3211 21.0272 37.9978 23.138 37.5591C24.5222 37.2705 25.9179 37.0049 27.3135 36.7509C27.648 36.6932 27.7864 36.5546 27.7403 36.2198C27.7403 36.1967 27.7403 36.1851 27.7403 36.162C27.9018 35.0883 27.5904 34.3147 26.6561 33.5873C24.972 32.2826 24.0954 30.4121 23.7494 28.3223C23.6917 27.9644 23.5879 27.7681 23.2072 27.6642C22.1461 27.3755 21.5001 26.5558 21.3963 25.4589C21.3733 25.2511 21.3733 25.0317 21.3848 24.8239C21.3963 24.108 21.3848 23.5192 20.6697 22.9534C19.4585 21.9951 19.8392 19.9861 21.2233 19.2703C21.3733 19.2125 21.5463 19.1433 21.7654 19.0509ZM50.5325 41.0922C50.4748 41.2654 50.4287 41.3693 50.3941 41.4732C49.4598 44.3943 48.9869 47.3963 48.8369 50.456C48.8023 51.1025 48.4678 51.4258 47.9257 51.3912C47.3836 51.3566 47.0606 50.9871 47.1298 50.3405C47.3836 48.2276 47.6143 46.1147 47.9603 44.0133C48.1564 42.8125 48.537 41.6464 48.8484 40.4456C48.7677 40.3994 48.71 40.3532 48.6408 40.3417C46.6684 39.9491 44.696 39.545 42.7236 39.1755C42.5737 39.1524 42.3084 39.3141 42.2046 39.4757C39.9092 42.7663 37.6369 46.0685 35.3531 49.3591C34.7302 50.2597 34.3265 51.2526 34.2804 52.3611C34.2342 53.5849 34.2458 54.8204 34.2342 56.0442C34.2342 56.4368 34.2342 56.8409 34.2342 57.2335C38.5597 57.2335 42.8159 57.2335 47.0952 57.2335C47.0952 56.991 47.0952 56.7832 47.0952 56.5753C47.0952 55.7325 47.0952 54.8896 47.0952 54.0352C47.0952 53.6311 47.2682 53.2616 47.6835 53.227C47.9834 53.1924 48.364 53.2963 48.6062 53.4695C48.7677 53.5849 48.8138 53.9429 48.8138 54.2084C48.8369 55.2129 48.8254 56.229 48.8254 57.2681C50.0711 57.2681 51.2361 57.2797 52.4126 57.2681C53.5084 57.2566 54.2581 56.5292 54.2581 55.4207C54.2697 52.3842 54.2812 49.3476 54.2466 46.3225C54.2005 43.7939 52.7932 42.1775 50.5325 41.0922ZM19.6316 57.2335C23.9801 57.2335 28.2248 57.2335 32.5041 57.2335C32.5041 55.871 32.481 54.5433 32.5041 53.2155C32.5387 51.6798 32.0773 50.3174 31.2007 49.0705C28.986 45.9069 26.7945 42.7317 24.626 39.5566C24.3722 39.1871 24.13 39.1178 23.7263 39.2102C22.5613 39.4642 21.3963 39.672 20.2313 39.9029C19.4355 40.0646 18.6396 40.2378 17.786 40.4225C19.793 45.9299 19.7469 51.5644 19.6316 57.2335ZM23.0919 23.7501C23.0919 24.1888 23.0919 24.5699 23.0919 24.9509C23.0919 25.8861 23.2649 26.0478 24.1992 26.0708C25.0182 26.0939 25.295 26.3595 25.3296 27.1793C25.5834 32.375 30.5432 34.9035 34.1535 34.5225C37.4062 34.1761 41.2703 31.7284 41.4548 26.9483C41.4779 26.3941 41.8009 26.117 42.3315 26.0708C42.5621 26.0478 42.8274 26.117 43.012 26.0247C43.2542 25.8977 43.5887 25.6783 43.6233 25.4705C43.7156 24.9162 43.6579 24.3389 43.6579 23.7616C36.7718 23.7501 29.978 23.7501 23.0919 23.7501ZM23.5302 18.9701C30.128 18.9701 36.6911 18.9701 43.2542 18.9701C43.4849 15.4139 41.0396 11.0033 38.4213 10.2759C38.4213 10.5761 38.4328 10.8648 38.4213 11.1419C38.3867 11.7423 38.0752 12.0887 37.5562 12.0887C37.0487 12.0887 36.7142 11.7423 36.7026 11.1419C36.6911 10.68 36.7141 10.2182 36.6911 9.75636C36.6795 9.61781 36.5873 9.37534 36.4835 9.35225C35.7683 9.17906 35.0416 9.05206 34.2458 8.90196C34.2458 9.24834 34.2458 9.45617 34.2458 9.66399C34.2458 10.8186 34.2573 11.9732 34.2458 13.1162C34.2342 13.7513 33.9574 14.063 33.4268 14.0746C32.8732 14.0861 32.5387 13.7628 32.5271 13.1162C32.5041 12.1002 32.5271 11.0841 32.5156 10.0681C32.5156 9.71018 32.5156 9.35225 32.5156 8.90196C31.7774 9.04051 31.143 9.16752 30.5086 9.27143C30.1395 9.32916 30.0587 9.53699 30.0703 9.87182C30.0933 10.2875 30.0818 10.7147 30.0703 11.1419C30.0587 11.7307 29.7242 12.0887 29.2167 12.0887C28.7092 12.0887 28.3747 11.7307 28.3516 11.1419C28.3401 10.8417 28.3516 10.553 28.3516 10.2182C25.5949 11.5575 23.2188 15.1137 23.5302 18.9701ZM16.2058 41.0922C14.095 42.1198 12.6186 43.6207 12.5494 46.0223C12.4456 49.1859 12.4802 52.3611 12.5032 55.5247C12.5032 56.4022 13.1261 57.1642 13.945 57.2104C15.26 57.2912 16.5749 57.2335 17.9129 57.2335C18.0167 51.7838 18.0629 46.3802 16.2058 41.0922ZM37.2101 35.5155C34.6725 36.5431 32.0773 36.5431 29.5512 35.527C29.0783 37.5245 29.7704 38.9793 31.4198 40.0299C31.4313 40.0415 31.4544 40.053 31.466 40.0646C33.7498 41.5194 32.9885 41.5194 35.2608 40.0877C36.9448 39.0254 37.7061 37.5476 37.2101 35.5155ZM33.3807 22.0067C36.9448 22.0067 40.509 22.0067 44.0732 22.0067C44.2462 22.0067 44.4653 22.0644 44.5807 21.972C44.7768 21.8335 45.0421 21.6025 45.0305 21.4178C45.019 21.1984 44.7883 20.9444 44.5922 20.7828C44.4653 20.6904 44.2231 20.7481 44.027 20.7481C36.9218 20.7481 29.805 20.7481 22.6997 20.7481C22.5036 20.7481 22.273 20.702 22.1345 20.7943C21.9385 20.9329 21.6847 21.1869 21.6962 21.3716C21.7193 21.591 21.9615 21.8219 22.1691 21.9836C22.2845 22.0644 22.5036 22.0067 22.6767 22.0067C26.2524 22.0067 29.8165 22.0067 33.3807 22.0067ZM30.4394 44.937C31.4198 46.3456 32.4002 47.7658 33.3807 49.1975C34.3842 47.7427 35.3646 46.311 36.322 44.937C35.4569 44.429 34.6149 43.9671 33.8075 43.4476C33.4845 43.2397 33.2538 43.2628 32.9308 43.4591C32.135 43.9556 31.2929 44.429 30.4394 44.937ZM26.1601 38.7483C27.0944 40.0992 27.971 41.3924 28.8938 42.6624C29.2398 43.1358 29.8742 43.2513 30.3356 42.9973C30.7508 42.7663 31.143 42.5008 31.5698 42.2352C30.0241 41.2307 28.5823 40.18 27.8557 38.4135C27.302 38.529 26.7714 38.6329 26.1601 38.7483ZM35.1685 42.2468C35.5722 42.4892 35.9183 42.7202 36.2874 42.928C36.841 43.2513 37.4524 43.2051 37.833 42.6971C38.7673 41.427 39.6554 40.1108 40.6013 38.7483C39.9669 38.6329 39.4363 38.529 38.8711 38.4251C38.1675 40.2031 36.7026 41.2307 35.1685 42.2468Z" fill="#FF5F15"/>
<path d="M10.208 18.335C10.2311 12.793 15.6407 8.86732 20.8659 10.6223C21.2004 10.7378 21.5579 10.9918 21.7079 11.292C21.8117 11.4998 21.6733 11.9847 21.4772 12.1464C21.2696 12.3196 20.8197 12.4004 20.5429 12.308C19.1703 11.8577 17.7977 11.8 16.4136 12.2272C13.38 13.174 11.4883 16.2337 11.9843 19.3626C12.4803 22.4339 15.1794 24.7546 18.2937 24.7662C18.4321 24.7662 18.559 24.7546 18.6974 24.7662C19.2626 24.7777 19.574 25.0663 19.5971 25.5975C19.6086 26.1055 19.3087 26.4519 18.7551 26.4865C17.4863 26.5558 16.2751 26.3364 15.1102 25.8284C12.1343 24.5352 10.1965 21.5795 10.208 18.335Z" fill="#FF5F15"/>
</g>
<defs>
<clipPath id="clip0_18_227">
<rect width="56" height="59" fill="white"/>
</clipPath>
</defs>
</svg>
