<svg width="57" height="57" viewBox="0 0 57 57" fill="none" xmlns="http://www.w3.org/2000/svg">
<g clip-path="url(#clip0_18_196)">
<path d="M45.2877 18.0582C46.8633 18.0582 48.4389 18.0582 50.0145 18.0582C50.2375 18.0582 50.5164 18.1001 50.6698 17.9882C50.9208 17.7924 51.2415 17.5126 51.2694 17.2469C51.2972 17.0091 51.0184 16.6874 50.7953 16.4636C50.6837 16.3517 50.4049 16.3517 50.2097 16.3517C46.9469 16.3517 43.6982 16.3517 40.4354 16.3517C40.2542 16.3517 40.059 16.3796 39.8917 16.4356C39.4873 16.5615 39.2224 16.8832 39.3479 17.2748C39.4315 17.5546 39.7243 17.8204 39.9893 18.0022C40.1426 18.1141 40.4215 18.0582 40.6446 18.0582C42.1784 18.0582 43.7261 18.0582 45.2877 18.0582ZM41.6346 49.5585C43.0428 49.5585 44.4511 49.5585 45.8594 49.5585C46.0964 49.5585 46.4032 49.6005 46.5565 49.4746C46.7936 49.2928 47.0724 48.985 47.0864 48.7332C47.1003 48.4675 46.8354 48.1598 46.6123 47.9639C46.4729 47.838 46.194 47.866 45.9709 47.866C43.0847 47.866 40.1845 47.866 37.2982 47.866C37.0751 47.866 36.7963 47.838 36.6568 47.9639C36.4198 48.1598 36.127 48.4815 36.1409 48.7193C36.1549 48.999 36.4616 49.2928 36.7126 49.4886C36.852 49.6005 37.1448 49.5725 37.354 49.5725C38.7762 49.5585 40.2124 49.5585 41.6346 49.5585ZM41.6346 45.544C43.0428 45.544 44.4511 45.544 45.8594 45.544C46.0825 45.544 46.3056 45.5301 46.5147 45.4741C46.9051 45.3762 47.1003 45.0964 47.1143 44.7048C47.1143 44.2852 46.9191 43.9914 46.5008 43.8935C46.2916 43.8375 46.0546 43.8375 45.8454 43.8375C43.0289 43.8375 40.2124 43.8375 37.3958 43.8375C37.1867 43.8375 36.9915 43.8515 36.7823 43.8795C36.3222 43.9494 36.0991 44.2712 36.0991 44.6908C36.0991 45.1244 36.3501 45.4321 36.7963 45.5021C36.9915 45.5301 37.2006 45.544 37.4098 45.544C38.818 45.558 40.2263 45.544 41.6346 45.544ZM41.6346 39.8231C40.1148 39.8231 38.5949 39.8091 37.0751 39.8371C36.4756 39.8371 36.0991 40.2007 36.0991 40.6763C36.0991 41.1519 36.4756 41.5016 37.0751 41.5436C37.1727 41.5436 37.2564 41.5436 37.354 41.5436C40.2124 41.5436 43.0568 41.5436 45.9151 41.5436C46.1522 41.5436 46.4032 41.5296 46.6262 41.4456C47.2119 41.2218 47.3374 40.3826 46.8215 40.0469C46.5984 39.893 46.2637 39.851 45.9849 39.8371C44.5208 39.8091 43.0847 39.8231 41.6346 39.8231ZM41.6067 53.573C42.9173 53.573 44.242 53.573 45.5526 53.573C45.8454 53.573 46.1522 53.573 46.445 53.531C46.8633 53.4751 47.1003 53.2093 47.1282 52.7757C47.1561 52.3281 46.9469 52.0204 46.5008 51.9225C46.3195 51.8805 46.1382 51.8665 45.957 51.8665C43.0707 51.8665 40.1705 51.8665 37.2843 51.8665C37.0612 51.8665 36.7823 51.8525 36.6429 51.9644C36.4198 52.1602 36.127 52.496 36.1549 52.7337C36.1828 53.0135 36.4895 53.2933 36.7405 53.4891C36.8939 53.601 37.1727 53.559 37.3958 53.559C38.7901 53.573 40.1984 53.573 41.6067 53.573ZM41.6485 35.8226C40.9095 35.8226 40.1705 35.8226 39.4315 35.8226C38.6228 35.8226 37.8002 35.8086 36.9915 35.8366C36.4616 35.8506 36.113 36.2002 36.0991 36.6479C36.0852 37.0815 36.4337 37.4452 36.9496 37.5151C37.0612 37.5291 37.1727 37.5291 37.2843 37.5291C40.1705 37.5291 43.0707 37.5291 45.957 37.5291C46.1801 37.5291 46.4032 37.5011 46.6123 37.4312C46.9888 37.3053 47.1561 36.9975 47.1282 36.6059C47.1003 36.2142 46.8912 35.9485 46.5008 35.8645C46.3056 35.8226 46.0964 35.8226 45.8873 35.8226C44.465 35.8086 43.0568 35.8226 41.6485 35.8226ZM41.6206 31.8081C40.0869 31.8081 38.5392 31.8081 37.0054 31.8221C36.4477 31.8221 36.0852 32.1998 36.0852 32.6613C36.0852 33.109 36.4477 33.4447 36.9636 33.5006C37.0751 33.5146 37.1867 33.5006 37.2982 33.5006C40.1705 33.5006 43.0428 33.5006 45.9151 33.5006C46.1522 33.5006 46.4032 33.4866 46.6262 33.4027C47.0027 33.2628 47.2119 32.9271 47.1003 32.5634C47.0027 32.2837 46.7517 32.0459 46.5008 31.864C46.3613 31.7661 46.1103 31.8081 45.9012 31.8081C44.479 31.8081 43.0428 31.8081 41.6206 31.8081ZM49.9029 21.611C51.0741 21.611 52.2454 21.639 53.4027 21.5971C53.7094 21.5831 54.0998 21.4852 54.2811 21.2753C54.4484 21.0935 54.5181 20.6039 54.3926 20.4361C54.2114 20.1843 53.807 19.9465 53.5003 19.9325C51.1439 19.8906 48.7875 19.9045 46.445 19.9185C45.7897 19.9185 45.4132 20.2402 45.4132 20.7578C45.3992 21.3033 45.7618 21.611 46.4729 21.625C47.6023 21.625 48.7596 21.611 49.9029 21.611ZM7.29235 9.16196C6.12111 9.16196 4.96382 9.16196 3.79259 9.16196C3.10937 9.16196 2.71896 9.49767 2.73291 10.0292C2.74685 10.5467 3.12332 10.8405 3.77865 10.8405C6.10717 10.8405 8.44964 10.8405 10.7782 10.8405C11.4753 10.8405 11.8378 10.5188 11.8239 9.97325C11.81 9.45571 11.4335 9.16196 10.7782 9.14798C9.62087 9.16196 8.46358 9.16196 7.29235 9.16196ZM11.5032 8.04294C12.6744 8.04294 13.8317 8.04294 15.003 8.04294C15.4352 8.04294 15.8256 7.94503 16.0069 7.49742C16.2579 6.89595 15.8256 6.35043 15.0866 6.33644C13.3298 6.32245 11.5729 6.32245 9.80213 6.33644C9.11891 6.33644 8.43569 6.33644 7.75247 6.36442C7.2784 6.3784 6.99954 6.67215 6.97165 7.14773C6.94377 7.62331 7.20869 7.91705 7.66882 8.01497C7.83613 8.04294 8.00345 8.04294 8.17077 8.05693C9.28623 8.04294 10.3877 8.04294 11.5032 8.04294Z" fill="white"/>
<path d="M0 35.8645C0.250978 35.4029 0.655333 35.2771 1.15729 35.2771C2.9002 35.291 4.6431 35.291 6.38601 35.291C6.58121 35.291 6.79036 35.291 7.05528 35.291C7.05528 34.9833 7.05528 34.7595 7.05528 34.5217C7.05528 28.0034 7.05528 21.4851 7.05528 14.9809C7.05528 13.7499 7.25049 13.5541 8.4775 13.5541C11.7123 13.5541 14.9332 13.5541 18.1681 13.5541C18.3633 13.5541 18.5724 13.5541 18.8513 13.5541C18.8513 13.3023 18.8513 13.0785 18.8513 12.8687C18.8513 9.05006 18.8513 5.23141 18.8513 1.42675C18.8513 0.209817 19.0325 0.0139885 20.2317 0.0139885C25.7811 0.0139885 31.3305 0.0139885 36.8799 0.0139885C37.9396 0.0139885 38.1766 0.25178 38.1766 1.32883C38.1766 10.0712 38.1766 18.8275 38.1766 27.5698C38.1766 27.8076 38.1766 28.0454 38.1766 28.3811C38.4137 28.3811 38.6367 28.3811 38.8459 28.3811C42.3317 28.3811 45.8175 28.3811 49.3173 28.3811C50.3491 28.3811 50.5722 28.6049 50.5722 29.612C50.5722 30.4093 50.5861 31.2066 50.5722 32.0179C50.5582 32.5914 50.2375 32.9551 49.7635 32.9691C49.2615 32.9831 48.9129 32.6054 48.899 32.0179C48.885 31.3885 48.899 30.759 48.899 30.1016C44.0467 30.1016 39.2502 30.1016 34.4119 30.1016C34.4119 38.4942 34.4119 46.8589 34.4119 55.2655C39.2084 55.2655 44.0049 55.2655 48.899 55.2655C48.899 55.0697 48.899 54.8599 48.899 54.6361C48.899 48.6493 48.899 42.6486 48.899 36.6618C48.899 36.508 48.899 36.3681 48.899 36.2142C48.9269 35.6128 49.2615 35.2351 49.7635 35.2491C50.2654 35.2631 50.5861 35.6267 50.5861 36.2422C50.6 38.2704 50.5861 40.2986 50.5861 42.3269C50.5861 42.5227 50.5861 42.7325 50.5861 43.0262C50.8231 43.0262 51.0044 43.0262 51.1996 43.0262C52.7613 43.0262 54.3229 43.0262 55.8706 43.0262C56.7211 43.0262 57.0139 43.32 57.0139 44.1732C57.0139 48.0199 57.0139 51.8805 57.0139 55.7271C57.0139 56.7622 56.7769 57 55.7312 57C39.4733 57 23.2295 57 6.97162 57C5.04746 57 3.10934 56.986 1.18518 57.014C0.669276 57.014 0.278865 56.8741 0.0139432 56.4265C0 49.5725 0 42.7185 0 35.8645ZM36.4337 28.3811C36.4337 19.4569 36.4337 10.5887 36.4337 1.73448C31.1353 1.73448 25.8647 1.73448 20.6081 1.73448C20.6081 5.67902 20.6081 9.59558 20.6081 13.5121C21.3053 13.5121 21.9606 13.5121 22.602 13.5121C22.6438 13.4562 22.6578 13.4422 22.6578 13.4282C22.6717 12.9666 22.6717 12.505 22.6857 12.0294C22.6996 11.372 23.0203 10.9944 23.5362 11.0083C24.0382 11.0223 24.3589 11.414 24.3728 12.0574C24.3867 12.533 24.3728 13.0086 24.3728 13.5121C24.568 13.5261 24.6935 13.5261 24.819 13.5401C26.2412 13.5541 26.3806 13.694 26.3806 15.1067C26.3806 28.2692 26.3806 41.4177 26.3806 54.5801C26.3806 54.8179 26.3806 55.0417 26.3806 55.2655C28.5139 55.2655 30.5636 55.2655 32.6551 55.2655C32.6551 54.9858 32.6551 54.748 32.6551 54.5102C32.6551 46.2994 32.6551 38.1026 32.6551 29.8918C32.6551 29.7239 32.6551 29.5561 32.6551 29.3882C32.6969 28.6888 32.9897 28.3951 33.7008 28.3811C34.5932 28.3671 35.4856 28.3811 36.4337 28.3811ZM24.6517 44.9006C24.4007 44.9006 24.2055 44.9006 23.9963 44.9006C21.8072 44.9006 19.6182 44.9006 17.4291 44.9006C17.192 44.9006 16.941 44.8866 16.718 44.8027C16.3415 44.6768 16.1184 44.3411 16.2299 43.9774C16.3136 43.6977 16.5646 43.4459 16.8156 43.264C16.9689 43.1521 17.2478 43.2081 17.4709 43.1941C19.646 43.1941 21.8072 43.1941 23.9824 43.1941C24.1915 43.1941 24.4146 43.1941 24.6238 43.1941C24.6238 41.8093 24.6238 40.5224 24.6238 39.2216C19.3253 39.2216 14.0687 39.2216 8.78425 39.2216C8.78425 40.5504 8.78425 41.8373 8.78425 43.1941C8.9934 43.1941 9.17466 43.1941 9.35592 43.1941C10.5829 43.1941 11.8099 43.1801 13.023 43.2081C13.5668 43.2221 13.8875 43.5578 13.8875 44.0334C13.9014 44.5089 13.5807 44.8447 13.0509 44.9006C12.7441 44.9286 12.4234 44.9146 12.1027 44.9146C11.0012 44.9146 9.88576 44.9146 8.78425 44.9146C8.78425 46.2854 8.78425 47.6002 8.78425 48.8871C14.0827 48.8871 19.3393 48.8871 24.6238 48.8871C24.6517 47.5443 24.6517 46.2714 24.6517 44.9006ZM24.6377 15.2746C19.3253 15.2746 14.0687 15.2746 8.79819 15.2746C8.79819 16.9671 8.79819 18.6177 8.79819 20.2962C14.0827 20.2962 19.3393 20.2962 24.6377 20.2962C24.6377 18.6177 24.6377 16.9671 24.6377 15.2746ZM7.0274 55.2795C7.0274 49.1669 7.0274 43.0962 7.0274 37.0115C5.24266 37.0115 3.48581 37.0115 1.72896 37.0115C1.72896 43.1242 1.72896 49.1809 1.72896 55.2795C3.49976 55.2795 5.22872 55.2795 7.0274 55.2795ZM24.6517 50.6356C19.3393 50.6356 14.0687 50.6356 8.81213 50.6356C8.81213 52.2022 8.81213 53.7269 8.81213 55.2655C14.1106 55.2655 19.3672 55.2655 24.6517 55.2655C24.6517 53.7129 24.6517 52.2022 24.6517 50.6356ZM8.79819 31.7102C14.1245 31.7102 19.3811 31.7102 24.6377 31.7102C24.6377 30.3674 24.6377 29.0665 24.6377 27.7656C19.3253 27.7656 14.0827 27.7656 8.79819 27.7656C8.79819 29.0945 8.79819 30.3813 8.79819 31.7102ZM24.6517 22.0447C19.3393 22.0447 14.0827 22.0447 8.81213 22.0447C8.81213 23.3875 8.81213 24.6883 8.81213 26.0032C14.1106 26.0032 19.3672 26.0032 24.6517 26.0032C24.6517 24.6744 24.6517 23.3875 24.6517 22.0447ZM8.79819 37.4172C14.1106 37.4172 19.3672 37.4172 24.6377 37.4172C24.6377 36.0883 24.6377 34.7875 24.6377 33.4726C19.3393 33.4726 14.0827 33.4726 8.79819 33.4726C8.79819 34.8015 8.79819 36.0883 8.79819 37.4172ZM50.6 55.2655C52.1896 55.2655 53.7233 55.2655 55.271 55.2655C55.271 51.7406 55.271 48.2437 55.271 44.7327C53.6954 44.7327 52.1617 44.7327 50.6 44.7327C50.6 48.2577 50.6 51.7406 50.6 55.2655Z" fill="#FF5F15"/>
<path d="M45.2878 18.0582C43.7262 18.0582 42.1785 18.0582 40.6168 18.0582C40.3937 18.0582 40.1149 18.1001 39.9615 18.0022C39.6966 17.8204 39.4038 17.5546 39.3201 17.2748C39.2086 16.8832 39.4735 16.5615 39.8639 16.4356C40.0312 16.3796 40.2264 16.3517 40.4077 16.3517C43.6704 16.3517 46.9192 16.3517 50.1819 16.3517C50.3771 16.3517 50.642 16.3517 50.7675 16.4636C50.9906 16.6734 51.2695 16.9951 51.2416 17.2469C51.2137 17.5266 50.893 17.8064 50.642 17.9882C50.4887 18.1001 50.2098 18.0582 49.9867 18.0582C48.4251 18.0582 46.8495 18.0582 45.2878 18.0582Z" fill="#FF5F15"/>
<path d="M41.6347 49.5585C40.2125 49.5585 38.7764 49.5585 37.3542 49.5585C37.1311 49.5585 36.8522 49.6005 36.7128 49.4746C36.4618 49.2788 36.169 48.971 36.1411 48.7053C36.1272 48.4535 36.42 48.1458 36.657 47.9499C36.7964 47.824 37.0753 47.852 37.2984 47.852C40.1846 47.852 43.0848 47.852 45.9711 47.852C46.1942 47.852 46.473 47.838 46.6125 47.9499C46.8356 48.1458 47.1005 48.4675 47.0866 48.7193C47.0726 48.971 46.8077 49.2788 46.5567 49.4606C46.3894 49.5865 46.0966 49.5445 45.8595 49.5445C44.4513 49.5585 43.043 49.5585 41.6347 49.5585Z" fill="#FF5F15"/>
<path d="M41.6345 45.5441C40.2263 45.5441 38.818 45.5441 37.4097 45.5441C37.2006 45.5441 37.0054 45.5301 36.7962 45.5021C36.35 45.4321 36.0991 45.1244 36.0991 44.6908C36.0991 44.2572 36.3361 43.9494 36.7823 43.8795C36.9775 43.8515 37.1866 43.8375 37.3958 43.8375C40.2123 43.8375 43.0289 43.8375 45.8454 43.8375C46.0685 43.8375 46.2916 43.8515 46.5007 43.8935C46.919 43.9914 47.1142 44.2852 47.1142 44.7048C47.1142 45.0964 46.9051 45.3762 46.5147 45.4741C46.3055 45.5301 46.0685 45.5441 45.8593 45.5441C44.4511 45.558 43.0428 45.5441 41.6345 45.5441Z" fill="#FF5F15"/>
<path d="M41.6344 39.8231C43.0845 39.8231 44.5206 39.8091 45.9707 39.837C46.2496 39.837 46.5842 39.893 46.8073 40.0469C47.3232 40.3826 47.1977 41.2218 46.6121 41.4456C46.389 41.5296 46.138 41.5435 45.901 41.5435C43.0426 41.5435 40.1982 41.5435 37.3399 41.5435C37.2422 41.5435 37.1586 41.5435 37.061 41.5435C36.4614 41.5016 36.085 41.1659 36.085 40.6763C36.085 40.1867 36.4614 39.837 37.061 39.837C38.5947 39.8091 40.1146 39.8231 41.6344 39.8231Z" fill="#FF5F15"/>
<path d="M41.6068 53.573C40.1985 53.573 38.7902 53.573 37.382 53.573C37.1589 53.573 36.88 53.615 36.7266 53.5031C36.4756 53.3072 36.1689 53.0135 36.141 52.7477C36.1131 52.4959 36.4059 52.1742 36.629 51.9784C36.7685 51.8525 37.0473 51.8805 37.2704 51.8805C40.1567 51.8805 43.0569 51.8805 45.9431 51.8805C46.1244 51.8805 46.3196 51.8945 46.4869 51.9364C46.9331 52.0483 47.1422 52.3421 47.1143 52.7897C47.0865 53.2093 46.8494 53.4891 46.4311 53.545C46.1383 53.587 45.8455 53.587 45.5388 53.587C44.2281 53.573 42.9174 53.573 41.6068 53.573Z" fill="#FF5F15"/>
<path d="M41.6487 35.8226C43.057 35.8226 44.4652 35.8226 45.8735 35.8226C46.0827 35.8226 46.2779 35.8226 46.487 35.8645C46.8774 35.9485 47.0866 36.2142 47.1145 36.6059C47.1423 36.9975 46.975 37.3053 46.5986 37.4312C46.3894 37.5011 46.1663 37.5291 45.9432 37.5291C43.057 37.5291 40.1568 37.5291 37.2705 37.5291C37.159 37.5291 37.0474 37.5291 36.9359 37.5151C36.4339 37.4452 36.0714 37.0815 36.0853 36.6479C36.0993 36.2002 36.4479 35.8505 36.9777 35.8366C37.7864 35.8086 38.6091 35.8226 39.4178 35.8226C40.1707 35.8226 40.9097 35.8226 41.6487 35.8226Z" fill="#FF5F15"/>
<path d="M41.6204 31.8081C43.0426 31.8081 44.4788 31.8081 45.901 31.8081C46.1102 31.8081 46.3611 31.7661 46.5006 31.864C46.7376 32.0459 47.0025 32.2977 47.1001 32.5634C47.2256 32.9271 47.0025 33.2628 46.6261 33.4027C46.403 33.4866 46.152 33.5006 45.9149 33.5006C43.0426 33.5006 40.1703 33.5006 37.298 33.5006C37.1865 33.5006 37.0749 33.5006 36.9634 33.5006C36.4475 33.4447 36.085 33.109 36.085 32.6613C36.085 32.1858 36.4475 31.8221 37.0052 31.8221C38.5529 31.8081 40.0867 31.8081 41.6204 31.8081Z" fill="#FF5F15"/>
<path d="M49.9031 21.611C48.7597 21.611 47.6024 21.611 46.4591 21.611C45.748 21.611 45.3994 21.3033 45.3994 20.7438C45.4134 20.2263 45.7759 19.9045 46.4312 19.9045C48.7876 19.8905 51.144 19.8766 53.4865 19.9185C53.7933 19.9185 54.1976 20.1563 54.3789 20.4221C54.5044 20.6039 54.4346 21.0795 54.2673 21.2614C54.0721 21.4712 53.6956 21.5691 53.3889 21.5831C52.2455 21.639 51.0743 21.611 49.9031 21.611Z" fill="#FF5F15"/>
<path d="M7.29244 9.16196C8.46367 9.16196 9.62096 9.16196 10.7922 9.16196C11.4475 9.16196 11.824 9.46969 11.8379 9.98724C11.8519 10.5328 11.4754 10.8545 10.7922 10.8545C8.46367 10.8545 6.12121 10.8545 3.79269 10.8545C3.12341 10.8545 2.76089 10.5607 2.74694 10.0432C2.733 9.49767 3.12341 9.17595 3.80663 9.17595C4.94998 9.16196 6.12121 9.16196 7.29244 9.16196Z" fill="#FF5F15"/>
<path d="M11.5033 8.04295C10.3878 8.04295 9.28631 8.04295 8.17085 8.04295C8.00353 8.04295 7.83621 8.04295 7.66889 8.00098C7.20876 7.90307 6.94384 7.60933 6.97173 7.13374C6.99962 6.65816 7.27848 6.36442 7.75255 6.35043C8.43577 6.32246 9.11899 6.33644 9.80221 6.32246C11.5591 6.32246 13.3159 6.30847 15.0867 6.32246C15.8257 6.32246 16.2579 6.88196 16.007 7.48344C15.8257 7.93104 15.4353 8.02896 15.003 8.02896C13.8458 8.04295 12.6745 8.04295 11.5033 8.04295Z" fill="#FF5F15"/>
<path d="M34.3562 5.76294C34.3562 6.1546 34.384 6.54626 34.3562 6.92393C34.3143 7.49742 33.9797 7.83313 33.5056 7.81914C33.0455 7.81914 32.6969 7.49742 32.683 6.9519C32.6551 6.11264 32.6551 5.28736 32.683 4.4481C32.7108 3.93055 33.0873 3.58086 33.5335 3.59485C33.9657 3.59485 34.3004 3.94454 34.3701 4.47607C34.3701 4.51804 34.384 4.54601 34.384 4.58797C34.3562 4.99362 34.3562 5.37129 34.3562 5.76294Z" fill="#FF5F15"/>
<path d="M32.6553 13.0925C32.6553 12.6869 32.6274 12.2812 32.6553 11.8756C32.6972 11.3441 33.0457 11.0223 33.4919 11.0223C33.9381 11.0223 34.3006 11.358 34.3285 11.8756C34.3564 12.7009 34.3564 13.5401 34.3285 14.3794C34.3006 14.9249 33.966 15.2326 33.4919 15.2326C33.0179 15.2326 32.7111 14.9249 32.6414 14.3794C32.6414 14.3374 32.6414 14.3095 32.6274 14.2675C32.6553 13.8758 32.6553 13.4842 32.6553 13.0925Z" fill="#FF5F15"/>
<path d="M34.342 20.534C34.342 20.9536 34.3699 21.3872 34.342 21.8069C34.3002 22.2964 34.0213 22.6042 33.5193 22.6042C33.0174 22.6042 32.7106 22.3104 32.6827 21.8209C32.6409 20.9536 32.6409 20.0864 32.6827 19.2191C32.6967 18.7296 32.9895 18.4358 33.5054 18.4218C33.9795 18.4079 34.3141 18.7156 34.3559 19.2611C34.3838 19.6807 34.3559 20.1144 34.342 20.534C34.3559 20.534 34.342 20.534 34.342 20.534Z" fill="#FF5F15"/>
<path d="M24.3726 5.72098C24.3726 6.11264 24.3866 6.5043 24.3726 6.88196C24.3447 7.48344 24.0101 7.83313 23.5081 7.83313C23.0201 7.81914 22.7134 7.48344 22.6994 6.89595C22.6855 6.09865 22.6855 5.30135 22.6994 4.50405C22.7134 3.97252 23.0341 3.62282 23.4942 3.60883C23.9543 3.58086 24.3447 3.95853 24.3726 4.49006C24.3866 4.90969 24.3726 5.31534 24.3726 5.72098Z" fill="#FF5F15"/>
<path d="M29.3643 5.76295C29.3643 6.1546 29.3782 6.54626 29.3643 6.92393C29.3225 7.49742 29.0018 7.83313 28.5138 7.83313C28.0257 7.83313 27.6911 7.49742 27.6772 6.92393C27.6493 6.12663 27.6493 5.32933 27.6772 4.53202C27.6911 3.97251 28.0536 3.60883 28.5138 3.60883C28.9739 3.60883 29.3085 3.97251 29.3643 4.53202C29.3643 4.57399 29.3643 4.60196 29.3643 4.64393C29.3643 5.0216 29.3643 5.38528 29.3643 5.76295Z" fill="#FF5F15"/>
<path d="M29.3646 35.375C29.3646 35.7666 29.3785 36.1583 29.3646 36.5359C29.3367 37.1374 28.9881 37.5011 28.5001 37.4871C28.0121 37.4731 27.7053 37.1374 27.6914 36.5499C27.6775 35.7526 27.6635 34.9553 27.6914 34.158C27.7053 33.5985 28.0121 33.2908 28.4862 33.2768C28.9742 33.2628 29.3228 33.5845 29.3646 34.1441C29.3925 34.5497 29.3646 34.9693 29.3646 35.375Z" fill="#FF5F15"/>
<path d="M29.3643 42.8025C29.3643 43.1941 29.3783 43.5858 29.3643 43.9634C29.3364 44.5649 28.9878 44.9146 28.4998 44.9146C28.0118 44.9006 27.7051 44.5649 27.6911 43.9774C27.6772 43.1801 27.6772 42.3828 27.6911 41.5855C27.7051 41.054 28.0397 40.7043 28.4859 40.6903C28.946 40.6623 29.3225 41.04 29.3643 41.5855C29.3922 41.9912 29.3643 42.3968 29.3643 42.8025Z" fill="#FF5F15"/>
<path d="M29.3645 27.9475C29.3645 28.3531 29.3924 28.7588 29.3645 29.1644C29.3227 29.7239 28.9602 30.0596 28.4861 30.0456C28.026 30.0317 27.7053 29.696 27.6913 29.1504C27.6634 28.3391 27.6634 27.5139 27.6913 26.7026C27.7053 26.171 28.0538 25.8213 28.5 25.8074C28.9602 25.7934 29.3366 26.157 29.3645 26.7026C29.3924 27.1362 29.3645 27.5418 29.3645 27.9475Z" fill="#FF5F15"/>
<path d="M29.3645 13.1205C29.3645 13.5261 29.3924 13.9318 29.3645 14.3374C29.3227 14.9109 28.988 15.2326 28.4861 15.2047C28.012 15.1907 27.7053 14.8829 27.6913 14.3234C27.6634 13.5122 27.6634 12.6869 27.6913 11.8756C27.7053 11.3301 28.0399 11.0083 28.5 10.9944C28.9741 10.9804 29.3366 11.3301 29.3645 11.8896C29.3924 12.3092 29.3645 12.7149 29.3645 13.1205Z" fill="#FF5F15"/>
<path d="M29.3645 50.2579C29.3645 50.6496 29.3784 51.0412 29.3645 51.4189C29.3366 51.9924 29.002 52.3421 28.5279 52.3421C28.0538 52.3421 27.7053 52.0064 27.6913 51.4329C27.6634 50.6216 27.6634 49.7963 27.6913 48.985C27.7053 48.4395 28.0399 48.1318 28.514 48.1318C28.988 48.1318 29.2948 48.4395 29.3645 48.971C29.3645 49.013 29.3645 49.041 29.3645 49.0829C29.3645 49.4746 29.3645 49.8663 29.3645 50.2579Z" fill="#FF5F15"/>
<path d="M27.6911 20.464C27.6911 20.0304 27.6632 19.6108 27.6911 19.1772C27.719 18.7296 27.9839 18.4498 28.444 18.4218C28.9181 18.3799 29.2806 18.6177 29.3085 19.0932C29.3643 20.0304 29.3643 20.9816 29.3085 21.9328C29.2806 22.4083 28.9181 22.6461 28.444 22.6042C27.9979 22.5762 27.719 22.2964 27.6911 21.8488C27.6772 21.3872 27.6911 20.9256 27.6911 20.464Z" fill="#FF5F15"/>
<path d="M33.4638 27.4999C33.0036 27.4719 32.669 27.1082 32.669 26.6606C32.6829 26.199 33.0873 25.8074 33.5335 25.8353C33.9657 25.8633 34.3283 26.269 34.3283 26.6886C34.3283 27.1642 33.9518 27.5278 33.4638 27.4999Z" fill="#FF5F15"/>
<path d="M3.55536 40.2847C3.55536 39.921 3.54142 39.5433 3.55536 39.1796C3.58325 38.6901 3.91789 38.3404 4.35013 38.3404C4.8242 38.3404 5.15883 38.5921 5.20066 39.0537C5.25644 39.865 5.25644 40.6763 5.20066 41.4876C5.17278 41.9492 4.83814 42.201 4.36407 42.215C3.93183 42.229 3.58325 41.8793 3.55536 41.3897C3.52748 41.026 3.55536 40.6483 3.55536 40.2847Z" fill="#FF5F15"/>
<path d="M3.55538 51.9644C3.55538 51.6147 3.54144 51.265 3.55538 50.9153C3.56932 50.4118 3.84819 50.118 4.3362 50.0761C4.76844 50.0341 5.18674 50.3558 5.20068 50.8314C5.24251 51.6287 5.24251 52.426 5.20068 53.2233C5.1728 53.6849 4.83816 53.9507 4.37803 53.9647C3.94579 53.9786 3.61115 53.629 3.55538 53.1534C3.55538 53.1114 3.55538 53.0834 3.55538 53.0415C3.54144 52.6638 3.54144 52.3141 3.55538 51.9644C3.54144 51.9644 3.54144 51.9644 3.55538 51.9644Z" fill="#FF5F15"/>
<path d="M5.22857 46.1875C5.22857 46.5232 5.24251 46.8589 5.22857 47.1946C5.20068 47.7541 4.8521 48.0898 4.35014 48.0758C3.87607 48.0618 3.56932 47.7401 3.55538 47.1946C3.54144 46.5092 3.54144 45.8238 3.55538 45.1244C3.56932 44.5509 3.89002 44.2152 4.39197 44.2152C4.87999 44.2152 5.20068 44.5649 5.22857 45.1384C5.24251 45.4741 5.22857 45.8238 5.22857 46.1875Z" fill="#FF5F15"/>
<path d="M53.7792 48.8172C53.7792 49.2228 53.8071 49.6425 53.7792 50.0481C53.7513 50.5237 53.3888 50.8594 52.9426 50.8314C52.4686 50.8034 52.1618 50.5377 52.1339 50.0761C52.0921 49.2228 52.0921 48.3696 52.1339 47.5163C52.1618 47.0547 52.4964 46.775 52.9705 46.789C53.4446 46.8029 53.7374 47.0687 53.7792 47.5443C53.7932 47.9639 53.7653 48.3975 53.7792 48.8172Z" fill="#FF5F15"/>
</g>
<defs>
<clipPath id="clip0_18_196">
<rect width="57" height="57" fill="white"/>
</clipPath>
</defs>
</svg>
